<svg xmlns="http://www.w3.org/2000/svg" width="30" height="30" viewBox="0 0 30 30"><defs><style>.a{fill:rgba(255,255,255,0);}.b,.e{fill:none;}.b,.c{stroke:#bac6e9;stroke-width:2px;}.c{fill:#fff;}.d{stroke:none;}</style></defs><g transform="translate(-3913.41 -240.849)"><rect class="a" width="30" height="30" transform="translate(3913.41 240.849)"/><g class="b" transform="translate(3934.41 245.849)"><rect class="d" width="7" height="7"/><rect class="e" x="1" y="1" width="5" height="5"/></g><g class="b" transform="translate(3916.41 245.849)"><rect class="d" width="7" height="7"/><rect class="e" x="1" y="1" width="5" height="5"/></g><g class="c" transform="translate(3923.41 248.849)"><rect class="d" width="11" height="2"/><rect class="e" x="1" y="1" width="9"/></g><g class="c" transform="translate(3937.41 257.849) rotate(-90)"><rect class="d" width="5" height="2"/><rect class="e" x="1" y="1" width="3"/></g><g class="c" transform="translate(3918.41 257.849) rotate(-90)"><rect class="d" width="5" height="2"/><rect class="e" x="1" y="1" width="3"/></g><g class="b" transform="translate(3934.41 257.849)"><rect class="d" width="7" height="7"/><rect class="e" x="1" y="1" width="5" height="5"/></g><g class="b" transform="translate(3916.41 257.849)"><rect class="d" width="7" height="7"/><rect class="e" x="1" y="1" width="5" height="5"/></g><g class="c" transform="translate(3923.41 259.849)"><rect class="d" width="11" height="2"/><rect class="e" x="1" y="1" width="9"/></g></g></svg>