<svg xmlns="http://www.w3.org/2000/svg" width="30" height="30" viewBox="0 0 30 30"><defs><style>.a{fill:rgba(255,255,255,0);}.b{fill:#fff;}</style></defs><g transform="translate(-4877 770)"><rect class="a" width="30" height="30" transform="translate(4877 -770)"/><path class="b" d="M-2220-1641a6.007,6.007,0,0,1-6-6,6.007,6.007,0,0,1,6-6,6.007,6.007,0,0,1,6,6A6.007,6.007,0,0,1-2220-1641Zm-1-5v2h2v-2h2v-2h-2v-2h-2v2h-2v2Z" transform="translate(7105 898)"/><circle class="b" cx="2.5" cy="2.5" r="2.5" transform="matrix(0.766, -0.643, 0.643, 0.766, 4896.755, -764.786)"/><rect class="b" width="18" height="1" transform="matrix(0.719, -0.695, 0.695, 0.719, 4886.945, -752.251)"/></g></svg>