<svg xmlns="http://www.w3.org/2000/svg" width="30" height="30" viewBox="0 0 30 30"><defs><style>.a{fill:rgba(255,255,255,0);}.b{fill:#fff;}</style></defs><g transform="translate(-4884 766)"><rect class="a" width="30" height="30" transform="translate(4884 -766)"/><path class="b" d="M-2085-1637a6.007,6.007,0,0,1-6-6,6.006,6.006,0,0,1,6-6,6.007,6.007,0,0,1,6,6A6.007,6.007,0,0,1-2085-1637Zm-1-5v2h2v-2h2v-2h-2v-2h-2v2h-2v2Z" transform="translate(6993 898)"/><circle class="b" cx="2.5" cy="2.5" r="2.5" transform="translate(4886 -762)"/><circle class="b" cx="2.5" cy="2.5" r="2.5" transform="translate(4905 -762)"/><circle class="b" cx="2.5" cy="2.5" r="2.5" transform="translate(4886 -747)"/><rect class="b" width="18" height="1" transform="translate(4890 -760)"/><rect class="b" width="15" height="1" transform="translate(4888 -744) rotate(-90)"/><rect class="b" width="13" height="1" transform="translate(4890 -745)"/><rect class="b" width="11" height="1" transform="translate(4907 -748) rotate(-90)"/></g></svg>