<svg xmlns="http://www.w3.org/2000/svg" width="93.744" height="25.92" viewBox="0 0 93.744 25.92"><defs><style>.a{fill:#0e8d8d;}.b{fill:#213e5e;}</style></defs><g transform="translate(-95.872 -25.08)"><path class="a" d="M2.912,0h14.88V-3.968H7.648V-10.3h8.32v-3.968H7.648v-5.472H17.44V-23.68H2.912Zm19.68,0h6.752C36.32,0,40.8-3.968,40.8-11.936c0-8-4.48-11.744-11.712-11.744h-6.5Zm4.736-3.808V-19.9H28.8c4.416,0,7.168,2.176,7.168,7.968,0,5.76-2.752,8.128-7.168,8.128ZM50.176-19.936h3.072c3.04,0,4.7.864,4.7,3.424,0,2.528-1.664,3.808-4.7,3.808H50.176ZM63.616,0,58.08-9.7a6.779,6.779,0,0,0,4.512-6.816c0-5.44-3.936-7.168-8.9-7.168H45.44V0h4.736V-8.96h3.3L58.336,0Z" transform="translate(126 51)"/><path class="b" d="M7.36-9.76l.7-2.592c.7-2.464,1.408-5.152,2.016-7.744h.128c.7,2.56,1.344,5.28,2.08,7.744l.7,2.592ZM15.68,0h4.96L13.024-23.68H7.456L-.128,0h4.8L6.336-6.08h7.68Zm7.36,0h4.672V-17.92H23.04Zm2.368-20.8a2.605,2.605,0,0,0,2.784-2.56,2.568,2.568,0,0,0-2.784-2.56,2.578,2.578,0,0,0-2.816,2.56A2.615,2.615,0,0,0,25.408-20.8Z" transform="translate(96 51)"/></g></svg>