<svg xmlns="http://www.w3.org/2000/svg" width="21" height="25.084" viewBox="0 0 21 25.084"><defs><style>.a,.b,.c{fill:none;}.b,.c{stroke:#707070;stroke-width:2px;}.c{stroke-linejoin:round;}.d{fill:#707070;}</style></defs><g transform="translate(-551.611 -1205.736)"><circle class="a" cx="10.5" cy="10.5" r="10.5" transform="translate(551.611 1205.736)"/><circle class="b" cx="9.5" cy="9.5" r="9.5" transform="translate(552.611 1206.736)"/><path class="c" d="M566.3,1225.412l1.758,2.886a1,1,0,0,1-.854,1.52v0h-10.19a1,1,0,0,1-.854-1.52l1.731-2.843"/><circle class="a" cx="3.5" cy="3.5" r="3.5" transform="translate(558.611 1212.736)"/><circle class="b" cx="2.5" cy="2.5" r="2.5" transform="translate(559.611 1213.736)"/><path class="d" d="M557,1225a1,1,0,0,1-1-1v-15a1,1,0,0,1,2,0v15A1,1,0,0,1,557,1225Z"/><path class="d" d="M567,1225a1,1,0,0,1-1-1v-15a1,1,0,0,1,2,0v15A1,1,0,0,1,567,1225Z"/></g></svg>