<svg xmlns="http://www.w3.org/2000/svg" width="76" height="76" viewBox="0 0 76 76"><defs><style>.a{fill:rgba(242,242,242,0);}.b,.e{fill:none;}.b{stroke:#474646;stroke-miterlimit:10;stroke-width:5px;}.c{fill:#474646;}.d{stroke:none;}</style></defs><g transform="translate(0.769 1.045)"><rect class="a" width="76" height="76" transform="translate(-0.769 -1.045)"/><g class="b" transform="translate(0 0)"><circle class="d" cx="37.232" cy="37.232" r="37.232"/><circle class="e" cx="37.232" cy="37.232" r="34.732"/></g><line class="b" x1="58.713" y2="32.313" transform="translate(10.725 25.504)"/><path class="c" d="M2294.465,1346.9l-21.266,10.364a5.383,5.383,0,0,0-3.8-1.771l-1.265-3.8-5.461,3,1.664,4.343a5.49,5.49,0,0,0,2.784,6.581,5.286,5.286,0,0,0,6.834-2.025l20.76-10.111" transform="translate(-2222.992 -1310.71)"/><path class="c" d="M2217.132,1299.421a.943.943,0,0,0,.3-1.357h0l-2.911-5.018a7.93,7.93,0,0,1-3.407,3.171l-20.838,11.767a7.631,7.631,0,0,1-3.229,1.05l-1.274.208,2.236,4.082.379.723a.555.555,0,0,0,.593.426l.256-.041.255-.042Z" transform="translate(-2166.542 -1271.177)"/><path class="c" d="M2160.087,1348.083l-.255.042a10.209,10.209,0,0,1-4.238-1.925l-1.446.759a.943.943,0,0,0-.3,1.357l3.669,6.464a.556.556,0,0,0,.593.427l.255-.042.255-.041,3.1-1.814a.943.943,0,0,0,.3-1.357h0Z" transform="translate(-2142.976 -1310.196)"/><path class="c" d="M2168.238,1278.264l20.838-11.768a8.559,8.559,0,0,0,3.152-3.13,8.107,8.107,0,0,0,.911-5.641,11.008,11.008,0,0,0-.967-2.72.943.943,0,0,0-1.357-.3l-33.553,18.81a.943.943,0,0,0-.3,1.357,8.681,8.681,0,0,0,5.376,4.093c.551.172,1.06.089,1.612.26.509-.083,1.06.089,1.57.006C2166.5,1278.809,2167.515,1278.643,2168.238,1278.264Z" transform="translate(-2145.261 -1242.902)"/></g></svg>