<svg xmlns="http://www.w3.org/2000/svg" width="68" height="68" viewBox="0 0 68 68"><defs><style>.a{fill:rgba(255,255,255,0);}.b{fill:#5d5d5d;}</style></defs><g transform="translate(11.51 15.832)"><rect class="a" width="68" height="68" transform="translate(-11.51 -15.832)"/><path class="b" d="M2284.315,1349.2l-14.563,7.228a4.1,4.1,0,0,0-2.894-1.351l-2.908-5.877-4.092,2.315,3.141,6.264a4.185,4.185,0,0,0,2.123,5.017,4.029,4.029,0,0,0,5.21-1.544l15.826-7.708" transform="translate(-2237.63 -1330.796)"/><path class="b" d="M2209.679,1297.906a.719.719,0,0,0,.23-1.035h0l-2.219-3.826a6.044,6.044,0,0,1-2.6,2.417l-15.886,8.971a5.815,5.815,0,0,1-2.462.8l-.971.159,1.7,3.112.29.551a.423.423,0,0,0,.452.325l.195-.032.195-.032Z" transform="translate(-2177.265 -1286.236)"/><path class="b" d="M2158.562,1347.635l-.194.032a7.781,7.781,0,0,1-3.231-1.467l-1.1.578a.719.719,0,0,0-.23,1.035l2.8,4.928a.423.423,0,0,0,.452.325l.195-.031.194-.032,2.367-1.383a.718.718,0,0,0,.23-1.034h0Z" transform="translate(-2151.67 -1328.613)"/><path class="b" d="M2165.516,1272.623l15.886-8.971a6.525,6.525,0,0,0,2.4-2.386,6.18,6.18,0,0,0,.695-4.3,8.4,8.4,0,0,0-.737-2.073.719.719,0,0,0-1.035-.23l-25.58,14.34a.719.719,0,0,0-.23,1.034,6.619,6.619,0,0,0,4.1,3.121c.42.131.809.067,1.229.2.389-.063.808.068,1.2,0C2164.188,1273.039,2164.965,1272.912,2165.516,1272.623Z" transform="translate(-2154.152 -1255.527)"/></g></svg>