<svg xmlns="http://www.w3.org/2000/svg" width="68" height="68" viewBox="0 0 68 68"><defs><style>.a{fill:rgba(255,255,255,0);}.b{fill:#5d5d5d;}</style></defs><g transform="translate(2 3)"><rect class="a" width="68" height="68" transform="translate(-2 -3)"/><circle class="b" cx="2.157" cy="2.157" r="2.157" transform="translate(29.483)"/><circle class="b" cx="1.798" cy="1.798" r="1.798" transform="translate(40.27 2.876)"/><circle class="b" cx="1.438" cy="1.438" r="1.438" transform="translate(48.18 7.191)"/><circle class="b" cx="1.079" cy="1.079" r="1.079" transform="translate(53.933 13.663)"/><circle class="b" cx="0.719" cy="0.719" r="0.719" transform="translate(58.247 22.292)"/><circle class="b" cx="4.315" cy="4.315" r="4.315" transform="translate(50.337 42.427)"/><circle class="b" cx="3.955" cy="3.955" r="3.955" transform="translate(40.359 51.056)"/><circle class="b" cx="3.416" cy="3.416" r="3.416" transform="translate(13.752 51.056)"/><circle class="b" cx="3.236" cy="3.236" r="3.236" transform="translate(4.315 43.146)"/><circle class="b" cx="2.876" cy="2.876" r="2.876" transform="translate(0.719 20.135)"/><circle class="b" cx="2.697" cy="2.697" r="2.697" transform="translate(7.91 8.629)"/><circle class="b" cx="2.517" cy="2.517" r="2.517" transform="translate(17.978 2.157)"/><circle class="b" cx="4.674" cy="4.674" r="4.674" transform="translate(54.652 28.045)"/><circle class="b" cx="3.596" cy="3.596" r="3.596" transform="translate(26.696 54.563)"/><circle class="b" cx="3.056" cy="3.056" r="3.056" transform="translate(0 32.36)"/></g></svg>